<svg width="609" height="242" viewBox="0 0 609 242" fill="none" xmlns="http://www.w3.org/2000/svg">
<g clip-path="url(#clip0_63_17)">
<path d="M336 73H333.342V50.8125H319.658V73H317V48H336V73Z" fill="white"/>
<path d="M357.076 50.6041C357.675 51.2986 358.134 52.0972 358.455 53C358.797 53.9028 358.979 54.8403 359 55.8125C359 56.6921 358.851 57.5718 358.551 58.4513C358.252 59.3078 357.835 60.0833 357.3 60.7777C356.638 61.6574 355.804 62.3519 354.798 62.8611C353.815 63.3704 352.788 63.625 351.719 63.625H344.598V73H342V48H351.719C352.511 48 353.323 48.1504 354.157 48.4514C355.312 48.8681 356.285 49.5856 357.076 50.6041ZM355.248 59.0416C355.953 58.0926 356.306 57.0625 356.306 55.9514C356.306 55.2338 356.188 54.5625 355.953 53.9375C355.74 53.3125 355.407 52.7569 354.959 52.2708C354.552 51.8078 354.06 51.4375 353.484 51.1597C352.906 50.8587 352.318 50.7083 351.719 50.7083H344.598V60.9166H351.719C352.36 60.9166 353.002 60.7546 353.643 60.4305C354.285 60.0833 354.82 59.6204 355.248 59.0416Z" fill="white"/>
<path d="M373.5 73C371.844 73 370.315 72.6774 368.91 72.032C367.527 71.3645 366.385 70.3964 365.484 69.1281C363.828 66.9029 363 63.9546 363 60.283C363 56.8563 363.828 54.0302 365.484 51.805C366.385 50.5812 367.517 49.6466 368.879 49.0012C370.241 48.3338 371.708 48 373.28 48C374.956 48 376.507 48.3226 377.932 48.9679C379.378 49.5909 380.573 50.5367 381.516 51.805C382.376 52.9844 382.994 54.2973 383.371 55.7436C383.749 57.1899 383.958 58.7699 384 60.4832C383.958 64.0436 383.13 66.9252 381.516 69.1281C380.594 70.3964 379.431 71.3645 378.027 72.032C376.644 72.6774 375.134 73 373.5 73ZM373.374 70.3964C374.611 70.3964 375.764 70.1517 376.832 69.6621C377.922 69.1726 378.792 68.4494 379.441 67.4926C380.657 65.8014 381.265 63.3872 381.265 60.2496C381.265 57.3791 380.657 55.1317 379.441 53.5073C378.813 52.5727 377.975 51.8496 376.926 51.3378C375.899 50.8259 374.8 50.57 373.626 50.57C372.389 50.57 371.226 50.8259 370.137 51.3378C369.068 51.8273 368.197 52.5505 367.527 53.5073C366.353 55.0872 365.745 57.4125 365.704 60.4832C365.704 63.4873 366.312 65.8237 367.527 67.4926C368.177 68.4272 369.025 69.1504 370.074 69.6621C371.121 70.1517 372.222 70.3964 373.374 70.3964Z" fill="white"/>
<path d="M402 50.8125H389.681V73H387V48H402V50.8125Z" fill="white"/>
<path d="M421.076 50.6041C421.675 51.2986 422.134 52.0972 422.456 53C422.797 53.9028 422.979 54.8403 423 55.8125C423 56.6921 422.851 57.5718 422.551 58.4513C422.252 59.3078 421.835 60.0833 421.301 60.7777C420.638 61.6574 419.803 62.3519 418.799 62.8611C417.814 63.3704 416.789 63.625 415.719 63.625H408.598V73H406V48H415.719C416.51 48 417.322 48.1504 418.157 48.4514C419.312 48.8681 420.285 49.5856 421.076 50.6041ZM419.248 59.0416C419.954 58.0926 420.306 57.0625 420.306 55.9514C420.306 55.2338 420.188 54.5625 419.954 53.9375C419.739 53.3125 419.408 52.7569 418.959 52.2708C418.553 51.8078 418.06 51.4375 417.483 51.1597C416.906 50.8587 416.318 50.7083 415.719 50.7083H408.598V60.9166H415.719C416.361 60.9166 417.002 60.7546 417.644 60.4305C418.285 60.0833 418.82 59.6204 419.248 59.0416Z" fill="white"/>
<path d="M429.899 50.8125V59.0764H440.852V61.9236H429.899V70.1875H443V73H427V48H443V50.8125H429.899Z" fill="white"/>
<path d="M467.839 65.3667C467.43 66.7888 466.808 68.0555 465.97 69.1666C465.005 70.4333 463.802 71.3888 462.362 72.0332C460.945 72.6778 459.41 73 457.757 73C456.082 73 454.537 72.6778 453.119 72.0332C451.702 71.3667 450.521 70.4111 449.577 69.1666C447.859 66.9222 447 64.0999 447 60.7C447 57.0334 447.859 54.0778 449.577 51.8333C450.521 50.5667 451.702 49.6111 453.119 48.9666C454.537 48.3222 456.082 48 457.757 48C459.432 48 460.989 48.3333 462.428 49C463.866 49.6445 465.047 50.5888 465.97 51.8333C466.936 53.1222 467.613 54.5889 468 56.2333L465.294 56.7C465.015 55.4556 464.553 54.3889 463.909 53.5C463.2 52.5445 462.288 51.8222 461.171 51.3333C460.076 50.8444 458.895 50.6 457.628 50.6C456.448 50.6 455.32 50.8555 454.247 51.3667C453.195 51.8556 452.336 52.5666 451.67 53.5C450.424 55.1666 449.801 57.5 449.801 60.4999C449.801 63.4555 450.424 65.8 451.67 67.5333C452.357 68.4666 453.248 69.1777 454.343 69.6666C455.46 70.1555 456.641 70.3999 457.886 70.3999C459.067 70.3999 460.194 70.1555 461.268 69.6666C462.341 69.1556 463.222 68.4444 463.909 67.5333C464.489 66.6889 464.929 65.7111 465.229 64.6L467.839 65.3667Z" fill="white"/>
<path d="M492.832 65.3667C492.404 66.7888 491.752 68.0555 490.874 69.1666C489.862 70.4333 488.603 71.3888 487.095 72.0332C485.611 72.6778 484.002 73 482.27 73C480.516 73 478.896 72.6778 477.411 72.0332C475.927 71.3667 474.69 70.4111 473.699 69.1666C471.9 66.9222 471 64.0999 471 60.7C471 57.0334 471.9 54.0778 473.699 51.8333C474.69 50.5667 475.927 49.6111 477.411 48.9666C478.896 48.3222 480.516 48 482.27 48C484.024 48 485.656 48.3333 487.163 49C488.67 49.6445 489.907 50.5888 490.874 51.8333C491.887 53.1222 492.595 54.5889 493 56.2333L490.166 56.7C489.874 55.4556 489.39 54.3889 488.716 53.5C487.973 52.5445 487.017 51.8222 485.847 51.3333C484.7 50.8444 483.463 50.6 482.135 50.6C480.899 50.6 479.717 50.8555 478.593 51.3667C477.491 51.8556 476.591 52.5666 475.893 53.5C474.588 55.1666 473.936 57.5 473.936 60.4999C473.936 63.4555 474.588 65.8 475.893 67.5333C476.613 68.4666 477.546 69.1777 478.693 69.6666C479.864 70.1555 481.101 70.3999 482.405 70.3999C483.643 70.3999 484.824 70.1555 485.948 69.6666C487.073 69.1556 487.995 68.4444 488.716 67.5333C489.322 66.6889 489.783 65.7111 490.098 64.6L492.832 65.3667Z" fill="white"/>
<path d="M338 106.559V112H335.385V109.179H317.581V112H315V106.559C316.207 106.559 317.19 105.955 317.95 104.746C318.71 103.537 319.224 101.746 319.492 99.3731L321.169 85H336.055V106.559H338ZM333.44 87.5858H323.482L322.074 99.6753C321.694 102.989 320.878 105.283 319.626 106.559H333.44V87.5858Z" fill="white"/>
<path d="M346.356 87.8125V96.0763H355.256V98.9236H346.356V107.188H357V110H344V85H357V87.8125H346.356Z" fill="white"/>
<path d="M378.638 98.5763C379.081 99.155 379.413 99.8031 379.635 100.521C379.878 101.238 380 101.956 380 102.674C380 103.53 379.866 104.352 379.601 105.139C379.357 105.926 378.993 106.632 378.506 107.257C377.554 108.414 376.359 109.213 374.92 109.652C374.122 109.884 373.049 110 371.699 110H363V85H371.267C371.954 85 372.518 85.0232 372.961 85.0694C373.425 85.0926 373.824 85.162 374.156 85.2778C375.484 85.6481 376.568 86.3773 377.409 87.4653C377.875 88.0439 378.228 88.7037 378.472 89.4444C378.738 90.162 378.871 90.9028 378.871 91.6667C378.871 92.3379 378.749 92.9976 378.506 93.6458C378.284 94.2939 377.974 94.8842 377.576 95.4166C377.222 95.9259 376.889 96.3078 376.579 96.5624C377.421 97.0948 378.107 97.7661 378.638 98.5763ZM365.722 87.6736V95.5555H372.23C372.783 95.5555 373.348 95.405 373.923 95.1042C374.521 94.78 374.986 94.3634 375.318 93.8541C375.827 93.1366 376.081 92.3263 376.081 91.4236C376.081 90.9374 375.993 90.4861 375.816 90.0695C375.639 89.6296 375.396 89.2476 375.086 88.9236C374.687 88.4606 374.256 88.1365 373.791 87.9513C373.348 87.7662 372.828 87.6736 372.23 87.6736H365.722ZM376.049 105.903C376.801 105.115 377.199 104.131 377.244 102.951C377.244 101.84 376.923 100.856 376.281 99.9999C375.905 99.4444 375.396 99.0162 374.753 98.7152C374.111 98.3911 373.47 98.2291 372.828 98.2291H365.722V107.291H371.665C372.839 107.291 373.724 107.222 374.322 107.083C374.941 106.921 375.517 106.528 376.049 105.903Z" fill="white"/>
<path d="M386.537 87.8125V96.0763H396.121V98.9236H386.537V107.188H398V110H384V85H398V87.8125H386.537Z" fill="white"/>
<path d="M422 109.982H419.112V87.7063H408.7L406.989 101.793C406.656 104.523 405.978 106.604 404.956 108.039C403.958 109.473 402.306 110.12 400 109.982V107.379C400.998 107.379 401.783 107.148 402.353 106.686C402.947 106.2 403.375 105.529 403.636 104.673C403.921 103.818 404.148 102.683 404.314 101.273L406.311 85H422V109.982Z" fill="white"/>
<path d="M436.5 110C434.686 110 433.01 109.678 431.473 109.032C429.958 108.365 428.707 107.397 427.72 106.128C425.907 103.903 425 100.955 425 97.2832C425 93.8564 425.907 91.0303 427.72 88.8051C428.707 87.5812 429.947 86.6467 431.438 86.0014C432.93 85.3338 434.537 85 436.259 85C438.095 85 439.793 85.3226 441.354 85.9679C442.938 86.591 444.246 87.5367 445.28 88.8051C446.22 89.9845 446.898 91.2973 447.311 92.7437C447.724 94.1902 447.954 95.77 448 97.4834C447.954 101.044 447.047 103.925 445.28 106.128C444.27 107.397 442.996 108.365 441.458 109.032C439.942 109.678 438.29 110 436.5 110ZM436.362 107.397C437.716 107.397 438.979 107.153 440.15 106.662C441.343 106.173 442.295 105.45 443.007 104.493C444.339 102.802 445.004 100.387 445.004 97.2498C445.004 94.3792 444.339 92.1318 443.007 90.5074C442.319 89.5728 441.401 88.8496 440.252 88.3378C439.128 87.826 437.923 87.5701 436.638 87.5701C435.283 87.5701 434.01 87.826 432.816 88.3378C431.646 88.8273 430.692 89.5505 429.958 90.5074C428.672 92.0873 428.007 94.4127 427.961 97.4834C427.961 100.488 428.626 102.824 429.958 104.493C430.67 105.428 431.599 106.151 432.746 106.662C433.895 107.153 435.099 107.397 436.362 107.397Z" fill="white"/>
<path d="M471 110H468.343V87.8125H454.658V110H452V85H471V110Z" fill="white"/>
<path d="M479.536 87.8125V96.0763H489.12V98.9236H479.536V107.188H491V110H477V85H491V87.8125H479.536Z" fill="white"/>
<path d="M511.962 87.6041C512.596 88.2986 513.082 89.0972 513.423 89.9999C513.784 90.9028 513.977 91.8403 514 92.8124C514 93.6921 513.841 94.5717 513.524 95.4513C513.207 96.3078 512.765 97.0832 512.2 97.7777C511.498 98.6574 510.615 99.3518 509.551 99.8611C508.508 100.37 507.423 100.625 506.29 100.625H498.75V110H496V85H506.29C507.128 85 507.988 85.1504 508.871 85.4514C510.094 85.8681 511.124 86.5856 511.962 87.6041ZM510.026 96.0416C510.774 95.0926 511.146 94.0625 511.146 92.9514C511.146 92.2337 511.022 91.5625 510.774 90.9374C510.547 90.3125 510.196 89.7569 509.72 89.2708C509.291 88.8078 508.77 88.4375 508.158 88.1597C507.547 87.8588 506.924 87.7083 506.29 87.7083H498.75V97.9167H506.29C506.97 97.9167 507.648 97.7545 508.328 97.4305C509.007 97.0832 509.573 96.6203 510.026 96.0416Z" fill="white"/>
<path d="M537.831 102.367C537.403 103.789 536.751 105.055 535.873 106.167C534.862 107.433 533.602 108.389 532.095 109.034C530.61 109.678 529.001 110 527.269 110C525.515 110 523.896 109.678 522.411 109.034C520.925 108.367 519.689 107.412 518.699 106.167C516.9 103.922 516 101.1 516 97.7002C516 94.0335 516.9 91.0779 518.699 88.8334C519.689 87.5667 520.925 86.6111 522.411 85.9667C523.896 85.3222 525.515 85 527.269 85C529.024 85 530.655 85.3333 532.163 86C533.669 86.6445 534.906 87.5889 535.873 88.8334C536.886 90.1223 537.594 91.589 538 93.2335L535.165 93.7001C534.873 92.4556 534.389 91.389 533.715 90.5001C532.972 89.5445 532.016 88.8222 530.846 88.3333C529.699 87.8445 528.462 87.6 527.134 87.6C525.897 87.6 524.716 87.8556 523.592 88.3667C522.49 88.8556 521.59 89.5667 520.892 90.5001C519.587 92.1668 518.935 94.5001 518.935 97.5001C518.935 100.456 519.587 102.8 520.892 104.534C521.612 105.467 522.546 106.178 523.692 106.667C524.863 107.156 526.1 107.401 527.404 107.401C528.642 107.401 529.823 107.156 530.948 106.667C532.072 106.156 532.995 105.445 533.715 104.534C534.321 103.689 534.782 102.711 535.097 101.6L537.831 102.367Z" fill="white"/>
<path d="M544.739 98.1597V110H542V85H544.739V95.7985H550.482L557.093 85H560.366L552.886 96.979L561 110H557.727L550.482 98.1597H544.739Z" fill="white"/>
<path d="M575.82 105.209H565.179L563.692 110H561L568.758 85H572.242L580 110H577.308L575.82 105.209ZM574.965 102.535L570.468 88.0903L566.003 102.535H574.965Z" fill="white"/>
<path d="M599 110H596.37V100.625H589.185L584.983 110H582L586.491 100.035C585.315 99.4791 584.385 98.7268 583.7 97.7777C583.166 97.1064 582.749 96.3541 582.45 95.5208C582.15 94.6643 582 93.8079 582 92.9514C582 91.9559 582.161 90.9954 582.481 90.0695C582.824 89.1204 583.305 88.2986 583.925 87.6041C584.673 86.6088 585.646 85.8913 586.844 85.4514C587.678 85.1504 588.48 85 589.249 85H599V110ZM596.37 87.7083H589.282C588.704 87.7083 588.116 87.8472 587.517 88.1249C586.94 88.4027 586.437 88.7848 586.01 89.2708C585.582 89.7569 585.251 90.3241 585.016 90.9722C584.801 91.5972 584.695 92.2569 584.695 92.9514C584.695 94.0625 585.047 95.0926 585.753 96.0416C586.181 96.6203 586.716 97.0832 587.357 97.4305C587.999 97.7545 588.64 97.9167 589.282 97.9167H596.37V87.7083Z" fill="white"/>
<path d="M319.738 139.107V150H317V127H319.738V136.935H325.482L332.093 127H335.366L327.886 138.021L336 150H332.727L325.482 139.107H319.738Z" fill="white"/>
<path d="M348 152C346.265 152 344.663 151.69 343.192 151.07C341.743 150.429 340.546 149.5 339.602 148.283C337.867 146.146 337 143.316 337 139.791C337 136.502 337.867 133.789 339.602 131.652C340.546 130.478 341.732 129.58 343.159 128.96C344.585 128.32 346.123 128 347.769 128C349.525 128 351.15 128.309 352.643 128.929C354.158 129.527 355.41 130.435 356.398 131.652C357.299 132.784 357.946 134.045 358.341 135.433C358.736 136.822 358.956 138.339 359 139.984C358.956 143.401 358.088 146.168 356.398 148.283C355.432 149.5 354.213 150.429 352.743 151.07C351.294 151.69 349.712 152 348 152ZM347.868 149.5C349.164 149.5 350.371 149.265 351.491 148.796C352.633 148.325 353.544 147.631 354.224 146.712C355.498 145.089 356.135 142.771 356.135 139.759C356.135 137.004 355.498 134.846 354.224 133.287C353.566 132.389 352.688 131.695 351.589 131.204C350.514 130.713 349.362 130.467 348.132 130.467C346.836 130.467 345.618 130.713 344.476 131.204C343.357 131.674 342.445 132.368 341.743 133.287C340.513 134.803 339.876 137.035 339.832 139.984C339.832 142.867 340.47 145.11 341.743 146.712C342.423 147.61 343.312 148.304 344.411 148.796C345.508 149.265 346.661 149.5 347.868 149.5Z" fill="white"/>
<path d="M387 149.969H384.236V132.75L375.809 150H374.191L365.764 132.75V150H363V127H365.73L375 145.816L384.236 127H387V149.969Z" fill="white"/>
<path d="M412 150H409.063V129.588H393.937V150H391V127H412V150Z" fill="white"/>
<path d="M430.381 145.592H418.621L416.975 150H414L422.575 127H426.425L435 150H432.025L430.381 145.592ZM429.435 143.132L424.466 129.843L419.53 143.132H429.435Z" fill="white"/>
<path d="M456 127V150H453.208V141.471H439.794V150H437V127H439.794V138.852H453.208V127H456Z" fill="white"/>
<path d="M479 127V150H476.072V131.792L462.607 150H460V127H462.928V145.208L476.428 127H479Z" fill="white"/>
<path d="M500 150H497.061V141.375H489.03L484.334 150H481L486.019 140.833C484.704 140.321 483.665 139.629 482.9 138.756C482.302 138.138 481.836 137.446 481.501 136.68C481.167 135.891 481 135.103 481 134.316C481 133.4 481.18 132.516 481.538 131.664C481.92 130.791 482.457 130.036 483.15 129.396C483.988 128.48 485.075 127.821 486.413 127.416C487.345 127.139 488.241 127 489.102 127H500V150ZM497.061 129.492H489.137C488.492 129.492 487.835 129.62 487.165 129.876C486.521 130.131 485.959 130.482 485.481 130.929C485.003 131.377 484.632 131.898 484.369 132.495C484.131 133.07 484.011 133.676 484.011 134.316C484.011 135.337 484.406 136.286 485.194 137.158C485.672 137.691 486.269 138.117 486.987 138.437C487.703 138.735 488.421 138.884 489.137 138.884H497.061V129.492Z" fill="white"/>
<path fill-rule="evenodd" clip-rule="evenodd" d="M259 -7H17V223H259V-7ZM216.65 194.711V26.2086H164.619H112.59H60.5601L60.5599 79.0963L60.5601 194.711H112.59V79.0963H164.619V194.711H216.65Z" fill="white"/>
<path d="M301 37H287V202H301V37Z" fill="#D53119"/>
</g>
<defs>
<clipPath id="clip0_63_17">
<rect width="609" height="242" fill="white"/>
</clipPath>
</defs>
</svg>
